<svg id="Layer_1" data-name="Layer 1" xmlns="http://www.w3.org/2000/svg" viewBox="0 0 65.81 54.7"><defs><style>.cls-1{fill:none;stroke:#082b26;stroke-linecap:round;stroke-linejoin:round;stroke-width:2.75px;}</style></defs><path class="cls-1" d="M48.27,15s-.89-5.83-5.58-5.55a5.91,5.91,0,0,0-5,3.68c-1,2.36-1.11,5.64,4.83,7.12"/><path class="cls-1" d="M29.25,37.24s3.73-2.69,7.12,0c0,0,3.17-7.48,10.85,0,4.58,4.45,4.31,6.29,4.31,6.29L20.44,43.4V31.75a9.08,9.08,0,0,1-6.25-6.57s-1.06-5.19,2-5c0,0,2.55-.21,2.23,4.66,0,0,.42,2.54,2.22,2.44V16.81s0-2,1.8-2c0,0,2,0,2.23,1.48l.21,8s2.54-.63,2.54-4.13c0,0,.45-3.07,2.67-2.86,0,0,1.89.22,1.47,2.86,0,0-.11,7.94-6.57,8.37L24.89,43"/></svg>